<svg xmlns="http://www.w3.org/2000/svg" xmlns:xlink="http://www.w3.org/1999/xlink" width="860" height="601.04"><rect width="860" height="601.04" rx="5" ry="5" class="a"/><svg y="0%" x="0%"><circle cx="20" cy="20" r="6" fill="#ff5f58"/><circle cx="40" cy="20" r="6" fill="#ffbd2e"/><circle cx="60" cy="20" r="6" fill="#18c132"/></svg><svg height="521.04" viewBox="0 0 80 52.104" width="800" x="25" xmlns="http://www.w3.org/2000/svg" xmlns:xlink="http://www.w3.org/1999/xlink" y="60"><style>@keyframes n{0%{transform:translateX(0)}.07%{transform:translateX(-80px)}9%{transform:translateX(-160px)}9.53%{transform:translateX(-240px)}10.25%{transform:translateX(-320px)}16.62%{transform:translateX(-400px)}17.73%{transform:translateX(-480px)}19.14%{transform:translateX(-640px)}22.57%{transform:translateX(-720px)}23%{transform:translateX(-800px)}23.74%{transform:translateX(-880px)}23.75%{transform:translateX(-960px)}23.76%{transform:translateX(-1040px)}31.68%{transform:translateX(-1120px)}32.81%{transform:translateX(-1200px)}33.32%{transform:translateX(-1280px)}33.72%{transform:translateX(-1360px)}34.33%{transform:translateX(-1440px)}34.89%{transform:translateX(-1520px)}36.97%{transform:translateX(-1600px)}37.98%{transform:translateX(-1680px)}39.41%{transform:translateX(-1760px)}40.02%{transform:translateX(-1840px)}40.67%{transform:translateX(-1920px)}42.88%{transform:translateX(-2000px)}44.37%{transform:translateX(-2080px)}47.21%{transform:translateX(-2160px)}47.56%{transform:translateX(-2240px)}49.55%{transform:translateX(-2320px)}50.2%{transform:translateX(-2400px)}50.57%{transform:translateX(-2480px)}51.13%{transform:translateX(-2560px)}51.49%{transform:translateX(-2640px)}52.04%{transform:translateX(-2720px)}52.69%{transform:translateX(-2800px)}55.07%{transform:translateX(-2880px)}57.01%{transform:translateX(-2960px)}58.91%{transform:translateX(-3040px)}59.97%{transform:translateX(-3120px)}60.64%{transform:translateX(-3200px)}61.32%{transform:translateX(-3280px)}62.05%{transform:translateX(-3360px)}64.18%{transform:translateX(-3440px)}65.85%{transform:translateX(-3520px)}67.79%{transform:translateX(-3600px)}70.36%{transform:translateX(-3680px)}72.91%{transform:translateX(-3760px)}73.56%{transform:translateX(-3840px)}74.03%{transform:translateX(-3920px)}79.04%{transform:translateX(-4000px)}80.6%{transform:translateX(-4080px)}83.76%{transform:translateX(-4160px)}88.64%{transform:translateX(-4320px)}90.81%{transform:translateX(-4400px)}91.53%{transform:translateX(-4480px)}92.06%{transform:translateX(-4560px)}92.56%{transform:translateX(-4640px)}96.46%{transform:translateX(-4800px)}96.49%{transform:translateX(-4880px)}to{transform:translateX(-4960px)}}.a{fill:#282d35}.f,.g,.h{white-space:pre}.f{fill:#a8cc8c;font-weight:700}.g,.h{fill:#b9c0cb}.h{fill:#71bef2;font-weight:700}.i{fill:#a8cc8c}.j,.k{fill:#71bef2;white-space:pre}.k{fill:#d290e3}</style><g font-family="Monaco,Consolas,Menlo,'Bitstream Vera Sans Mono','Powerline Symbols',monospace" font-size="1.67"><defs><symbol id="1"><text y="1.67" class="f">memecoder@DESKTOP-MG4FSHB</text><text x="25.05" y="1.67" class="g">:</text><text x="26.052" y="1.67" class="h">/mnt/c/Users/win</text><text x="43.086" y="1.67" class="h">10/Desktop</text><text x="53.106" y="1.67" class="g">$</text><text x="55.11" y="1.67" class="g">cd</text></symbol><symbol id="2"><text y="1.67" class="f">memecoder@DESKTOP-MG4FSHB</text><text x="25.05" y="1.67" class="g">:</text><text x="26.052" y="1.67" class="h">/mnt/c/Users/win</text><text x="43.086" y="1.67" class="h">10/Desktop</text><text x="53.106" y="1.67" class="g">$</text><text x="55.11" y="1.67" class="g">cd</text><text x="58.116" y="1.67" class="g">Zerionyx/</text></symbol><symbol id="3"><text y="1.67" class="f">memecoder@DESKTOP-MG4FSHB</text><text x="25.05" y="1.67" class="g">:</text><text x="26.052" y="1.67" class="h">/mnt/c/Users/win</text><text x="43.086" y="1.67" class="h">10/Desktop/Zerionyx</text><text x="62.124" y="1.67" class="g">$</text></symbol><symbol id="4"><text y="1.67" class="f">memecoder@DESKTOP-MG4FSHB</text><text x="25.05" y="1.67" class="g">:</text><text x="26.052" y="1.67" class="h">/mnt/c/Users/win</text><text x="43.086" y="1.67" class="h">10/Desktop/Zerionyx</text><text x="62.124" y="1.67" class="g">$</text><text x="64.128" y="1.67" class="g">ls</text></symbol><symbol id="5"><text y="1.67" class="f">LICENSE</text><text x="9.018" y="1.67" class="f">README.md</text><path class="i" d="M20.04 0h4v2.171h-4z"/><text x="20.04" y="1.67" class="j">docs</text><path class="i" d="M26.052 0h3v2.171h-3z"/><text x="26.052" y="1.67" class="j">ide</text><path class="i" d="M31.062 0h11v2.171h-11z"/><text x="31.062" y="1.67" class="j">interpreter</text><text x="44.088" y="1.67" class="f">requirements.txt</text><path class="i" d="M62.124 0h5v2.171h-5z"/><text x="62.124" y="1.67" class="j">tests</text></symbol><symbol id="6"><text y="1.67" class="f">memecoder@DESKTOP-MG4FSHB</text><text x="25.05" y="1.67" class="g">:</text><text x="26.052" y="1.67" class="h">/mnt/c/Users/win</text><text x="43.086" y="1.67" class="h">10/Desktop/Zerionyx</text><text x="62.124" y="1.67" class="g">$</text><text x="64.128" y="1.67" class="g">python3</text></symbol><symbol id="7"><text y="1.67" class="f">memecoder@DESKTOP-MG4FSHB</text><text x="25.05" y="1.67" class="g">:</text><text x="26.052" y="1.67" class="h">/mnt/c/Users/win</text><text x="43.086" y="1.67" class="h">10/Desktop/Zerionyx</text><text x="62.124" y="1.67" class="g">$</text><text x="64.128" y="1.67" class="g">python3</text><text x="72.144" y="1.67" class="g">interpre</text></symbol><symbol id="8"><text y="1.67" class="g">ter/Zerionyx.py</text></symbol><symbol id="9"><text y="1.67" class="g">Zerionyx</text><text x="9.018" y="1.67" class="g">(v2.2.9,</text><text x="18.036" y="1.67" class="g">June</text><text x="23.046" y="1.67" class="g">2025,</text><text x="29.058" y="1.67" class="g">13:46:15)</text></symbol><symbol id="10"><text y="1.67" class="g">Type</text><text x="5.01" y="1.67" class="g">&apos;grammar&apos;,</text><text x="16.032" y="1.67" class="g">&apos;copyright&apos;,</text><text x="29.058" y="1.67" class="g">&apos;license&apos;</text><text x="39.078" y="1.67" class="g">for</text><text x="43.086" y="1.67" class="g">more</text><text x="48.096" y="1.67" class="g">information</text><text x="60.12" y="1.67" class="g">or</text><text x="63.126" y="1.67" class="g">&apos;exit&apos;</text><text x="70.14" y="1.67" class="g">to</text><text x="73.146" y="1.67" class="g">exit.</text></symbol><symbol id="11"><text y="1.67" class="k">&gt;&gt;&gt;</text></symbol><symbol id="12"><text y="1.67" class="k">&gt;&gt;&gt;</text><text x="4.008" y="1.67" class="g">println(&quot;Hello,</text></symbol><symbol id="13"><text y="1.67" class="k">&gt;&gt;&gt;</text><text x="4.008" y="1.67" class="g">println(&quot;Hello,</text><text x="20.04" y="1.67" class="g">World!&quot;)</text></symbol><symbol id="14"><text y="1.67" class="g">Hello,</text><text x="7.014" y="1.67" class="g">World!</text></symbol><symbol id="15"><text y="1.67" class="k">&gt;&gt;&gt;</text><text x="4.008" y="1.67" class="g">exit</text></symbol><symbol id="16"><text y="1.67" class="g">exit...</text></symbol><symbol id="a"><path fill="transparent" d="M0 0h80v25H0z"/></symbol><symbol id="b"><path fill="#6f7683" d="M0 0h1.102v2.171H0z"/></symbol></defs><path class="a" d="M0 0h80v52.104H0z"/><g style="animation-duration:40.410485s;animation-iteration-count:infinite;animation-name:n;animation-timing-function:steps(1,end)"><svg width="5040"><svg><use xlink:href="#a"/><use xlink:href="#b" x="-.004"/></svg><svg x="80"><use xlink:href="#a"/><use xlink:href="#b" x="54.996"/><text y="1.67" class="f">memecoder@DESKTOP-MG4FSHB</text><text x="25.05" y="1.67" class="g">:</text><text x="26.052" y="1.67" class="h">/mnt/c/Users/win</text><text x="43.086" y="1.67" class="h">10/Desktop</text><text x="53.106" y="1.67" class="g">$</text></svg><svg x="160"><use xlink:href="#a"/><use xlink:href="#b" x="55.996"/><text y="1.67" class="f">memecoder@DESKTOP-MG4FSHB</text><text x="25.05" y="1.67" class="g">:</text><text x="26.052" y="1.67" class="h">/mnt/c/Users/win</text><text x="43.086" y="1.67" class="h">10/Desktop</text><text x="53.106" y="1.67" class="g">$</text><text x="55.11" y="1.67" class="g">c</text></svg><svg x="240"><use xlink:href="#a"/><use xlink:href="#b" x="56.996"/><use xlink:href="#1"/></svg><svg x="320"><use xlink:href="#a"/><use xlink:href="#b" x="57.996"/><use xlink:href="#1"/></svg><svg x="400"><use xlink:href="#a"/><use xlink:href="#b" x="58.996"/><text y="1.67" class="f">memecoder@DESKTOP-MG4FSHB</text><text x="25.05" y="1.67" class="g">:</text><text x="26.052" y="1.67" class="h">/mnt/c/Users/win</text><text x="43.086" y="1.67" class="h">10/Desktop</text><text x="53.106" y="1.67" class="g">$</text><text x="55.11" y="1.67" class="g">cd</text><text x="58.116" y="1.67" class="g">Z</text></svg><svg x="480"><use xlink:href="#a"/><use xlink:href="#b" x="66.996"/><use xlink:href="#2"/></svg><svg x="560"><use xlink:href="#a"/><use xlink:href="#b" x="-.004" y="2.146"/><use xlink:href="#2"/></svg><svg x="640"><use xlink:href="#a"/><use xlink:href="#b" x="63.996" y="2.146"/><use xlink:href="#2"/><use xlink:href="#3" y="2.171"/></svg><svg x="720"><use xlink:href="#a"/><use xlink:href="#b" x="64.996" y="2.146"/><use xlink:href="#2"/><text y="3.841" class="f">memecoder@DESKTOP-MG4FSHB</text><text x="25.05" y="3.841" class="g">:</text><text x="26.052" y="3.841" class="h">/mnt/c/Users/win</text><text x="43.086" y="3.841" class="h">10/Desktop/Zerionyx</text><text x="62.124" y="3.841" class="g">$</text><text x="64.128" y="3.841" class="g">l</text></svg><svg x="800"><use xlink:href="#a"/><use xlink:href="#b" x="65.996" y="2.146"/><use xlink:href="#2"/><use xlink:href="#4" y="2.171"/></svg><svg x="880"><use xlink:href="#a"/><use xlink:href="#b" x="-.004" y="4.317"/><use xlink:href="#2"/><use xlink:href="#4" y="2.171"/></svg><svg x="960"><use xlink:href="#a"/><use xlink:href="#b" x="-.004" y="6.488"/><use xlink:href="#2"/><use xlink:href="#4" y="2.171"/><use xlink:href="#5" y="4.342"/></svg><svg x="1040"><use xlink:href="#a"/><use xlink:href="#b" x="63.996" y="6.488"/><use xlink:href="#2"/><use xlink:href="#4" y="2.171"/><use xlink:href="#5" y="4.342"/><use xlink:href="#3" y="6.513"/></svg><svg x="1120"><use xlink:href="#a"/><use xlink:href="#b" x="64.996" y="6.488"/><use xlink:href="#2"/><use xlink:href="#4" y="2.171"/><use xlink:href="#5" y="4.342"/><text y="8.183" class="f">memecoder@DESKTOP-MG4FSHB</text><text x="25.05" y="8.183" class="g">:</text><text x="26.052" y="8.183" class="h">/mnt/c/Users/win</text><text x="43.086" y="8.183" class="h">10/Desktop/Zerionyx</text><text x="62.124" y="8.183" class="g">$</text><text x="64.128" y="8.183" class="g">p</text></svg><svg x="1200"><use xlink:href="#a"/><use xlink:href="#b" x="65.996" y="6.488"/><use xlink:href="#2"/><use xlink:href="#4" y="2.171"/><use xlink:href="#5" y="4.342"/><text y="8.183" class="f">memecoder@DESKTOP-MG4FSHB</text><text x="25.05" y="8.183" class="g">:</text><text x="26.052" y="8.183" class="h">/mnt/c/Users/win</text><text x="43.086" y="8.183" class="h">10/Desktop/Zerionyx</text><text x="62.124" y="8.183" class="g">$</text><text x="64.128" y="8.183" class="g">py</text></svg><svg x="1280"><use xlink:href="#a"/><use xlink:href="#b" x="66.996" y="6.488"/><use xlink:href="#2"/><use xlink:href="#4" y="2.171"/><use xlink:href="#5" y="4.342"/><text y="8.183" class="f">memecoder@DESKTOP-MG4FSHB</text><text x="25.05" y="8.183" class="g">:</text><text x="26.052" y="8.183" class="h">/mnt/c/Users/win</text><text x="43.086" y="8.183" class="h">10/Desktop/Zerionyx</text><text x="62.124" y="8.183" class="g">$</text><text x="64.128" y="8.183" class="g">pyt</text></svg><svg x="1360"><use xlink:href="#a"/><use xlink:href="#b" x="67.996" y="6.488"/><use xlink:href="#2"/><use xlink:href="#4" y="2.171"/><use xlink:href="#5" y="4.342"/><text y="8.183" class="f">memecoder@DESKTOP-MG4FSHB</text><text x="25.05" y="8.183" class="g">:</text><text x="26.052" y="8.183" class="h">/mnt/c/Users/win</text><text x="43.086" y="8.183" class="h">10/Desktop/Zerionyx</text><text x="62.124" y="8.183" class="g">$</text><text x="64.128" y="8.183" class="g">pyth</text></svg><svg x="1440"><use xlink:href="#a"/><use xlink:href="#b" x="68.996" y="6.488"/><use xlink:href="#2"/><use xlink:href="#4" y="2.171"/><use xlink:href="#5" y="4.342"/><text y="8.183" class="f">memecoder@DESKTOP-MG4FSHB</text><text x="25.05" y="8.183" class="g">:</text><text x="26.052" y="8.183" class="h">/mnt/c/Users/win</text><text x="43.086" y="8.183" class="h">10/Desktop/Zerionyx</text><text x="62.124" y="8.183" class="g">$</text><text x="64.128" y="8.183" class="g">pytho</text></svg><svg x="1520"><use xlink:href="#a"/><use xlink:href="#b" x="69.996" y="6.488"/><use xlink:href="#2"/><use xlink:href="#4" y="2.171"/><use xlink:href="#5" y="4.342"/><text y="8.183" class="f">memecoder@DESKTOP-MG4FSHB</text><text x="25.05" y="8.183" class="g">:</text><text x="26.052" y="8.183" class="h">/mnt/c/Users/win</text><text x="43.086" y="8.183" class="h">10/Desktop/Zerionyx</text><text x="62.124" y="8.183" class="g">$</text><text x="64.128" y="8.183" class="g">python</text></svg><svg x="1600"><use xlink:href="#a"/><use xlink:href="#b" x="70.996" y="6.488"/><use xlink:href="#2"/><use xlink:href="#4" y="2.171"/><use xlink:href="#5" y="4.342"/><use xlink:href="#6" y="6.513"/></svg><svg x="1680"><use xlink:href="#a"/><use xlink:href="#b" x="71.996" y="6.488"/><use xlink:href="#2"/><use xlink:href="#4" y="2.171"/><use xlink:href="#5" y="4.342"/><use xlink:href="#6" y="6.513"/></svg><svg x="1760"><use xlink:href="#a"/><use xlink:href="#b" x="72.996" y="6.488"/><use xlink:href="#2"/><use xlink:href="#4" y="2.171"/><use xlink:href="#5" y="4.342"/><text y="8.183" class="f">memecoder@DESKTOP-MG4FSHB</text><text x="25.05" y="8.183" class="g">:</text><text x="26.052" y="8.183" class="h">/mnt/c/Users/win</text><text x="43.086" y="8.183" class="h">10/Desktop/Zerionyx</text><text x="62.124" y="8.183" class="g">$</text><text x="64.128" y="8.183" class="g">python3</text><text x="72.144" y="8.183" class="g">i</text></svg><svg x="1840"><use xlink:href="#a"/><use xlink:href="#b" x="73.996" y="6.488"/><use xlink:href="#2"/><use xlink:href="#4" y="2.171"/><use xlink:href="#5" y="4.342"/><text y="8.183" class="f">memecoder@DESKTOP-MG4FSHB</text><text x="25.05" y="8.183" class="g">:</text><text x="26.052" y="8.183" class="h">/mnt/c/Users/win</text><text x="43.086" y="8.183" class="h">10/Desktop/Zerionyx</text><text x="62.124" y="8.183" class="g">$</text><text x="64.128" y="8.183" class="g">python3</text><text x="72.144" y="8.183" class="g">in</text></svg><svg x="1920"><use xlink:href="#a"/><use xlink:href="#b" x="3.996" y="8.659"/><use xlink:href="#2"/><use xlink:href="#4" y="2.171"/><use xlink:href="#5" y="4.342"/><use xlink:href="#7" y="6.513"/><text y="10.354" class="g">ter/</text></svg><svg x="2000"><use xlink:href="#a"/><use xlink:href="#b" x="4.996" y="8.659"/><use xlink:href="#2"/><use xlink:href="#4" y="2.171"/><use xlink:href="#5" y="4.342"/><use xlink:href="#7" y="6.513"/><text y="10.354" class="g">ter/Z</text></svg><svg x="2080"><use xlink:href="#a"/><use xlink:href="#b" x="15.996" y="8.659"/><use xlink:href="#2"/><use xlink:href="#4" y="2.171"/><use xlink:href="#5" y="4.342"/><use xlink:href="#7" y="6.513"/><use xlink:href="#8" y="8.684"/></svg><svg x="2160"><use xlink:href="#a"/><use xlink:href="#b" x="-.004" y="10.83"/><use xlink:href="#2"/><use xlink:href="#4" y="2.171"/><use xlink:href="#5" y="4.342"/><use xlink:href="#7" y="6.513"/><use xlink:href="#8" y="8.684"/></svg><svg x="2240"><use xlink:href="#a"/><use xlink:href="#b" x="3.996" y="15.172"/><use xlink:href="#2"/><use xlink:href="#4" y="2.171"/><use xlink:href="#5" y="4.342"/><use xlink:href="#7" y="6.513"/><use xlink:href="#8" y="8.684"/><use xlink:href="#9" y="10.855"/><use xlink:href="#10" y="13.026"/><use xlink:href="#11" y="15.197"/></svg><svg x="2320"><use xlink:href="#a"/><use xlink:href="#b" x="4.996" y="15.172"/><use xlink:href="#2"/><use xlink:href="#4" y="2.171"/><use xlink:href="#5" y="4.342"/><use xlink:href="#7" y="6.513"/><use xlink:href="#8" y="8.684"/><use xlink:href="#9" y="10.855"/><use xlink:href="#10" y="13.026"/><text y="16.867" class="k">&gt;&gt;&gt;</text><text x="4.008" y="16.867" class="g">p</text></svg><svg x="2400"><use xlink:href="#a"/><use xlink:href="#b" x="5.996" y="15.172"/><use xlink:href="#2"/><use xlink:href="#4" y="2.171"/><use xlink:href="#5" y="4.342"/><use xlink:href="#7" y="6.513"/><use xlink:href="#8" y="8.684"/><use xlink:href="#9" y="10.855"/><use xlink:href="#10" y="13.026"/><text y="16.867" class="k">&gt;&gt;&gt;</text><text x="4.008" y="16.867" class="g">pr</text></svg><svg x="2480"><use xlink:href="#a"/><use xlink:href="#b" x="6.996" y="15.172"/><use xlink:href="#2"/><use xlink:href="#4" y="2.171"/><use xlink:href="#5" y="4.342"/><use xlink:href="#7" y="6.513"/><use xlink:href="#8" y="8.684"/><use xlink:href="#9" y="10.855"/><use xlink:href="#10" y="13.026"/><text y="16.867" class="k">&gt;&gt;&gt;</text><text x="4.008" y="16.867" class="g">pri</text></svg><svg x="2560"><use xlink:href="#a"/><use xlink:href="#b" x="7.996" y="15.172"/><use xlink:href="#2"/><use xlink:href="#4" y="2.171"/><use xlink:href="#5" y="4.342"/><use xlink:href="#7" y="6.513"/><use xlink:href="#8" y="8.684"/><use xlink:href="#9" y="10.855"/><use xlink:href="#10" y="13.026"/><text y="16.867" class="k">&gt;&gt;&gt;</text><text x="4.008" y="16.867" class="g">prin</text></svg><svg x="2640"><use xlink:href="#a"/><use xlink:href="#b" x="8.996" y="15.172"/><use xlink:href="#2"/><use xlink:href="#4" y="2.171"/><use xlink:href="#5" y="4.342"/><use xlink:href="#7" y="6.513"/><use xlink:href="#8" y="8.684"/><use xlink:href="#9" y="10.855"/><use xlink:href="#10" y="13.026"/><text y="16.867" class="k">&gt;&gt;&gt;</text><text x="4.008" y="16.867" class="g">print</text></svg><svg x="2720"><use xlink:href="#a"/><use xlink:href="#b" x="9.996" y="15.172"/><use xlink:href="#2"/><use xlink:href="#4" y="2.171"/><use xlink:href="#5" y="4.342"/><use xlink:href="#7" y="6.513"/><use xlink:href="#8" y="8.684"/><use xlink:href="#9" y="10.855"/><use xlink:href="#10" y="13.026"/><text y="16.867" class="k">&gt;&gt;&gt;</text><text x="4.008" y="16.867" class="g">printl</text></svg><svg x="2800"><use xlink:href="#a"/><use xlink:href="#b" x="10.996" y="15.172"/><use xlink:href="#2"/><use xlink:href="#4" y="2.171"/><use xlink:href="#5" y="4.342"/><use xlink:href="#7" y="6.513"/><use xlink:href="#8" y="8.684"/><use xlink:href="#9" y="10.855"/><use xlink:href="#10" y="13.026"/><text y="16.867" class="k">&gt;&gt;&gt;</text><text x="4.008" y="16.867" class="g">println</text></svg><svg x="2880"><use xlink:href="#a"/><use xlink:href="#b" x="11.996" y="15.172"/><use xlink:href="#2"/><use xlink:href="#4" y="2.171"/><use xlink:href="#5" y="4.342"/><use xlink:href="#7" y="6.513"/><use xlink:href="#8" y="8.684"/><use xlink:href="#9" y="10.855"/><use xlink:href="#10" y="13.026"/><text y="16.867" class="k">&gt;&gt;&gt;</text><text x="4.008" y="16.867" class="g">println(</text></svg><svg x="2960"><use xlink:href="#a"/><use xlink:href="#b" x="12.996" y="15.172"/><use xlink:href="#2"/><use xlink:href="#4" y="2.171"/><use xlink:href="#5" y="4.342"/><use xlink:href="#7" y="6.513"/><use xlink:href="#8" y="8.684"/><use xlink:href="#9" y="10.855"/><use xlink:href="#10" y="13.026"/><text y="16.867" class="k">&gt;&gt;&gt;</text><text x="4.008" y="16.867" class="g">println(&quot;</text></svg><svg x="3040"><use xlink:href="#a"/><use xlink:href="#b" x="13.996" y="15.172"/><use xlink:href="#2"/><use xlink:href="#4" y="2.171"/><use xlink:href="#5" y="4.342"/><use xlink:href="#7" y="6.513"/><use xlink:href="#8" y="8.684"/><use xlink:href="#9" y="10.855"/><use xlink:href="#10" y="13.026"/><text y="16.867" class="k">&gt;&gt;&gt;</text><text x="4.008" y="16.867" class="g">println(&quot;H</text></svg><svg x="3120"><use xlink:href="#a"/><use xlink:href="#b" x="14.996" y="15.172"/><use xlink:href="#2"/><use xlink:href="#4" y="2.171"/><use xlink:href="#5" y="4.342"/><use xlink:href="#7" y="6.513"/><use xlink:href="#8" y="8.684"/><use xlink:href="#9" y="10.855"/><use xlink:href="#10" y="13.026"/><text y="16.867" class="k">&gt;&gt;&gt;</text><text x="4.008" y="16.867" class="g">println(&quot;He</text></svg><svg x="3200"><use xlink:href="#a"/><use xlink:href="#b" x="15.996" y="15.172"/><use xlink:href="#2"/><use xlink:href="#4" y="2.171"/><use xlink:href="#5" y="4.342"/><use xlink:href="#7" y="6.513"/><use xlink:href="#8" y="8.684"/><use xlink:href="#9" y="10.855"/><use xlink:href="#10" y="13.026"/><text y="16.867" class="k">&gt;&gt;&gt;</text><text x="4.008" y="16.867" class="g">println(&quot;Hel</text></svg><svg x="3280"><use xlink:href="#a"/><use xlink:href="#b" x="16.996" y="15.172"/><use xlink:href="#2"/><use xlink:href="#4" y="2.171"/><use xlink:href="#5" y="4.342"/><use xlink:href="#7" y="6.513"/><use xlink:href="#8" y="8.684"/><use xlink:href="#9" y="10.855"/><use xlink:href="#10" y="13.026"/><text y="16.867" class="k">&gt;&gt;&gt;</text><text x="4.008" y="16.867" class="g">println(&quot;Hell</text></svg><svg x="3360"><use xlink:href="#a"/><use xlink:href="#b" x="17.996" y="15.172"/><use xlink:href="#2"/><use xlink:href="#4" y="2.171"/><use xlink:href="#5" y="4.342"/><use xlink:href="#7" y="6.513"/><use xlink:href="#8" y="8.684"/><use xlink:href="#9" y="10.855"/><use xlink:href="#10" y="13.026"/><text y="16.867" class="k">&gt;&gt;&gt;</text><text x="4.008" y="16.867" class="g">println(&quot;Hello</text></svg><svg x="3440"><use xlink:href="#a"/><use xlink:href="#b" x="18.996" y="15.172"/><use xlink:href="#2"/><use xlink:href="#4" y="2.171"/><use xlink:href="#5" y="4.342"/><use xlink:href="#7" y="6.513"/><use xlink:href="#8" y="8.684"/><use xlink:href="#9" y="10.855"/><use xlink:href="#10" y="13.026"/><use xlink:href="#12" y="15.197"/></svg><svg x="3520"><use xlink:href="#a"/><use xlink:href="#b" x="19.996" y="15.172"/><use xlink:href="#2"/><use xlink:href="#4" y="2.171"/><use xlink:href="#5" y="4.342"/><use xlink:href="#7" y="6.513"/><use xlink:href="#8" y="8.684"/><use xlink:href="#9" y="10.855"/><use xlink:href="#10" y="13.026"/><use xlink:href="#12" y="15.197"/></svg><svg x="3600"><use xlink:href="#a"/><use xlink:href="#b" x="20.996" y="15.172"/><use xlink:href="#2"/><use xlink:href="#4" y="2.171"/><use xlink:href="#5" y="4.342"/><use xlink:href="#7" y="6.513"/><use xlink:href="#8" y="8.684"/><use xlink:href="#9" y="10.855"/><use xlink:href="#10" y="13.026"/><text y="16.867" class="k">&gt;&gt;&gt;</text><text x="4.008" y="16.867" class="g">println(&quot;Hello,</text><text x="20.04" y="16.867" class="g">W</text></svg><svg x="3680"><use xlink:href="#a"/><use xlink:href="#b" x="21.996" y="15.172"/><use xlink:href="#2"/><use xlink:href="#4" y="2.171"/><use xlink:href="#5" y="4.342"/><use xlink:href="#7" y="6.513"/><use xlink:href="#8" y="8.684"/><use xlink:href="#9" y="10.855"/><use xlink:href="#10" y="13.026"/><text y="16.867" class="k">&gt;&gt;&gt;</text><text x="4.008" y="16.867" class="g">println(&quot;Hello,</text><text x="20.04" y="16.867" class="g">Wo</text></svg><svg x="3760"><use xlink:href="#a"/><use xlink:href="#b" x="22.996" y="15.172"/><use xlink:href="#2"/><use xlink:href="#4" y="2.171"/><use xlink:href="#5" y="4.342"/><use xlink:href="#7" y="6.513"/><use xlink:href="#8" y="8.684"/><use xlink:href="#9" y="10.855"/><use xlink:href="#10" y="13.026"/><text y="16.867" class="k">&gt;&gt;&gt;</text><text x="4.008" y="16.867" class="g">println(&quot;Hello,</text><text x="20.04" y="16.867" class="g">Wor</text></svg><svg x="3840"><use xlink:href="#a"/><use xlink:href="#b" x="23.996" y="15.172"/><use xlink:href="#2"/><use xlink:href="#4" y="2.171"/><use xlink:href="#5" y="4.342"/><use xlink:href="#7" y="6.513"/><use xlink:href="#8" y="8.684"/><use xlink:href="#9" y="10.855"/><use xlink:href="#10" y="13.026"/><text y="16.867" class="k">&gt;&gt;&gt;</text><text x="4.008" y="16.867" class="g">println(&quot;Hello,</text><text x="20.04" y="16.867" class="g">Worl</text></svg><svg x="3920"><use xlink:href="#a"/><use xlink:href="#b" x="24.996" y="15.172"/><use xlink:href="#2"/><use xlink:href="#4" y="2.171"/><use xlink:href="#5" y="4.342"/><use xlink:href="#7" y="6.513"/><use xlink:href="#8" y="8.684"/><use xlink:href="#9" y="10.855"/><use xlink:href="#10" y="13.026"/><text y="16.867" class="k">&gt;&gt;&gt;</text><text x="4.008" y="16.867" class="g">println(&quot;Hello,</text><text x="20.04" y="16.867" class="g">World</text></svg><svg x="4000"><use xlink:href="#a"/><use xlink:href="#b" x="25.996" y="15.172"/><use xlink:href="#2"/><use xlink:href="#4" y="2.171"/><use xlink:href="#5" y="4.342"/><use xlink:href="#7" y="6.513"/><use xlink:href="#8" y="8.684"/><use xlink:href="#9" y="10.855"/><use xlink:href="#10" y="13.026"/><text y="16.867" class="k">&gt;&gt;&gt;</text><text x="4.008" y="16.867" class="g">println(&quot;Hello,</text><text x="20.04" y="16.867" class="g">World!</text></svg><svg x="4080"><use xlink:href="#a"/><use xlink:href="#b" x="26.996" y="15.172"/><use xlink:href="#2"/><use xlink:href="#4" y="2.171"/><use xlink:href="#5" y="4.342"/><use xlink:href="#7" y="6.513"/><use xlink:href="#8" y="8.684"/><use xlink:href="#9" y="10.855"/><use xlink:href="#10" y="13.026"/><text y="16.867" class="k">&gt;&gt;&gt;</text><text x="4.008" y="16.867" class="g">println(&quot;Hello,</text><text x="20.04" y="16.867" class="g">World!&quot;</text></svg><svg x="4160"><use xlink:href="#a"/><use xlink:href="#b" x="27.996" y="15.172"/><use xlink:href="#2"/><use xlink:href="#4" y="2.171"/><use xlink:href="#5" y="4.342"/><use xlink:href="#7" y="6.513"/><use xlink:href="#8" y="8.684"/><use xlink:href="#9" y="10.855"/><use xlink:href="#10" y="13.026"/><use xlink:href="#13" y="15.197"/></svg><svg x="4240"><use xlink:href="#a"/><use xlink:href="#b" x="-.004" y="17.343"/><use xlink:href="#2"/><use xlink:href="#4" y="2.171"/><use xlink:href="#5" y="4.342"/><use xlink:href="#7" y="6.513"/><use xlink:href="#8" y="8.684"/><use xlink:href="#9" y="10.855"/><use xlink:href="#10" y="13.026"/><use xlink:href="#13" y="15.197"/></svg><svg x="4320"><use xlink:href="#a"/><use xlink:href="#b" x="3.996" y="19.514"/><use xlink:href="#2"/><use xlink:href="#4" y="2.171"/><use xlink:href="#5" y="4.342"/><use xlink:href="#7" y="6.513"/><use xlink:href="#8" y="8.684"/><use xlink:href="#9" y="10.855"/><use xlink:href="#10" y="13.026"/><use xlink:href="#13" y="15.197"/><use xlink:href="#14" y="17.368"/><use xlink:href="#11" y="19.539"/></svg><svg x="4400"><use xlink:href="#a"/><use xlink:href="#b" x="4.996" y="19.514"/><use xlink:href="#2"/><use xlink:href="#4" y="2.171"/><use xlink:href="#5" y="4.342"/><use xlink:href="#7" y="6.513"/><use xlink:href="#8" y="8.684"/><use xlink:href="#9" y="10.855"/><use xlink:href="#10" y="13.026"/><use xlink:href="#13" y="15.197"/><use xlink:href="#14" y="17.368"/><text y="21.209" class="k">&gt;&gt;&gt;</text><text x="4.008" y="21.209" class="g">e</text></svg><svg x="4480"><use xlink:href="#a"/><use xlink:href="#b" x="5.996" y="19.514"/><use xlink:href="#2"/><use xlink:href="#4" y="2.171"/><use xlink:href="#5" y="4.342"/><use xlink:href="#7" y="6.513"/><use xlink:href="#8" y="8.684"/><use xlink:href="#9" y="10.855"/><use xlink:href="#10" y="13.026"/><use xlink:href="#13" y="15.197"/><use xlink:href="#14" y="17.368"/><text y="21.209" class="k">&gt;&gt;&gt;</text><text x="4.008" y="21.209" class="g">ex</text></svg><svg x="4560"><use xlink:href="#a"/><use xlink:href="#b" x="6.996" y="19.514"/><use xlink:href="#2"/><use xlink:href="#4" y="2.171"/><use xlink:href="#5" y="4.342"/><use xlink:href="#7" y="6.513"/><use xlink:href="#8" y="8.684"/><use xlink:href="#9" y="10.855"/><use xlink:href="#10" y="13.026"/><use xlink:href="#13" y="15.197"/><use xlink:href="#14" y="17.368"/><text y="21.209" class="k">&gt;&gt;&gt;</text><text x="4.008" y="21.209" class="g">exi</text></svg><svg x="4640"><use xlink:href="#a"/><use xlink:href="#b" x="7.996" y="19.514"/><use xlink:href="#2"/><use xlink:href="#4" y="2.171"/><use xlink:href="#5" y="4.342"/><use xlink:href="#7" y="6.513"/><use xlink:href="#8" y="8.684"/><use xlink:href="#9" y="10.855"/><use xlink:href="#10" y="13.026"/><use xlink:href="#13" y="15.197"/><use xlink:href="#14" y="17.368"/><use xlink:href="#15" y="19.539"/></svg><svg x="4720"><use xlink:href="#a"/><use xlink:href="#b" x="-.004" y="23.856"/><use xlink:href="#2"/><use xlink:href="#4" y="2.171"/><use xlink:href="#5" y="4.342"/><use xlink:href="#7" y="6.513"/><use xlink:href="#8" y="8.684"/><use xlink:href="#9" y="10.855"/><use xlink:href="#10" y="13.026"/><use xlink:href="#13" y="15.197"/><use xlink:href="#14" y="17.368"/><use xlink:href="#15" y="19.539"/><use xlink:href="#16" y="21.71"/></svg><svg x="4800"><use xlink:href="#a"/><use xlink:href="#b" x="-.004" y="23.856"/><use xlink:href="#2"/><use xlink:href="#4" y="2.171"/><use xlink:href="#5" y="4.342"/><use xlink:href="#7" y="6.513"/><use xlink:href="#8" y="8.684"/><use xlink:href="#9" y="10.855"/><use xlink:href="#10" y="13.026"/><use xlink:href="#13" y="15.197"/><use xlink:href="#14" y="17.368"/><use xlink:href="#15" y="19.539"/><use xlink:href="#16" y="21.71"/></svg><svg x="4880"><use xlink:href="#a"/><use xlink:href="#b" x="63.996" y="23.856"/><use xlink:href="#2"/><use xlink:href="#4" y="2.171"/><use xlink:href="#5" y="4.342"/><use xlink:href="#7" y="6.513"/><use xlink:href="#8" y="8.684"/><use xlink:href="#9" y="10.855"/><use xlink:href="#10" y="13.026"/><use xlink:href="#13" y="15.197"/><use xlink:href="#14" y="17.368"/><use xlink:href="#15" y="19.539"/><use xlink:href="#16" y="21.71"/><use xlink:href="#3" y="23.881"/></svg><svg x="4960"><use xlink:href="#a"/><use xlink:href="#b" x="-.004" y="28.198"/><use xlink:href="#2"/><use xlink:href="#4" y="2.171"/><use xlink:href="#5" y="4.342"/><use xlink:href="#7" y="6.513"/><use xlink:href="#8" y="8.684"/><use xlink:href="#9" y="10.855"/><use xlink:href="#10" y="13.026"/><use xlink:href="#13" y="15.197"/><use xlink:href="#14" y="17.368"/><use xlink:href="#15" y="19.539"/><use xlink:href="#16" y="21.71"/><use xlink:href="#3" y="23.881"/><text y="27.722" class="g">exit</text></svg></svg></g></g></svg></svg>
